<?xml version="1.0" encoding="utf-8"?>
<!-- Generator: Adobe Illustrator 24.3.0, SVG Export Plug-In . SVG Version: 6.00 Build 0)  -->
<svg version="1.1" id="Layer_1" xmlns="http://www.w3.org/2000/svg" xmlns:xlink="http://www.w3.org/1999/xlink" x="0px" y="0px"
	 viewBox="0 0 452.7 96.2" style="enable-background:new 0 0 452.7 96.2;" xml:space="preserve">
<style type="text/css">
	.st0{fill:#1F6D84;}
	.st1{fill:#929497;}
</style>
<g>
	<g>
		<g>
			<path class="st0" d="M106.3,38.1v30.6h-6.8V26h7.3l14.6,27.2L136,26h6.8v42.7H136V38.1L123,62h-3.7L106.3,38.1z"/>
		</g>
	</g>
	<g>
		<g>
			<path class="st0" d="M160.7,36.5v32.3h-6.9V26h7.3l23.1,31.7V26h6.8v42.7h-6.8L160.7,36.5z"/>
		</g>
	</g>
	<g>
		<g>
			<path class="st0" d="M202.4,26h7.3v42.7h-7.3V26z"/>
		</g>
	</g>
	<g>
		<g>
			<path class="st0" d="M247.5,57c0,3.5-1.4,6.5-4.1,8.8c-2.7,2.3-6.3,3.5-10.8,3.5c-1.9,0-3.8-0.2-5.6-0.6s-3.3-0.9-4.5-1.5
				s-2.2-1.2-3.1-1.8c-0.9-0.6-1.5-1.1-2-1.6l-0.6-0.6l4.2-4.5c0.4,0.4,0.9,0.8,1.5,1.3s2,1.2,4.1,2.1c2.1,0.9,4.2,1.3,6.4,1.3
				c2.1,0,3.8-0.5,5.2-1.6c1.3-1.1,2-2.5,2-4.1c0-1.8-0.8-3.4-2.3-4.7s-4.3-2.7-8.3-4.1c-7.1-2.6-10.7-6.6-10.7-12
				c0-3.3,1.3-6.1,3.9-8.3c2.6-2.2,6.1-3.3,10.3-3.3c1.7,0,3.3,0.2,4.9,0.5c1.6,0.4,2.9,0.8,3.9,1.3s2,1,2.7,1.5
				c0.8,0.5,1.4,0.9,1.7,1.3l0.5,0.5l-4.2,4.6c-0.3-0.3-0.7-0.7-1.2-1.1c-0.5-0.4-1.6-1-3.2-1.8c-1.6-0.7-3.3-1.1-5.1-1.1
				c-2.2,0-4,0.5-5.2,1.6c-1.3,1.1-1.9,2.3-1.9,3.6c0,1.6,0.6,2.9,1.9,4.1c1.3,1.1,3.5,2.2,6.7,3.4C243.3,46.8,247.5,51.2,247.5,57z
				"/>
		</g>
	</g>
	<g>
		<g>
			<path class="st0" d="M272,32.1v36.6h-7V32.1h-13.2V26h33.6v6.1H272z"/>
		</g>
	</g>
	<g>
		<g>
			<path class="st0" d="M292,26h18.4c4.4,0,8,1.3,10.7,3.8s4.1,5.7,4.1,9.7c0,3.1-0.9,5.7-2.7,8c-1.8,2.3-4.2,3.9-7.2,4.7L327,68.8
				h-8.2L308,53.1h-9v15.7h-7V26z M299,32v15.6h10.6c2.6,0,4.8-0.7,6.3-2.2c1.6-1.5,2.3-3.3,2.3-5.6s-0.8-4.1-2.3-5.6
				c-1.6-1.4-3.7-2.2-6.3-2.2H299z"/>
		</g>
	</g>
	<g>
		<g>
			<path class="st0" d="M369.2,26v25.2c0,5.4-1.7,9.7-5,13.1s-7.6,5-12.8,5c-5.2,0-9.4-1.6-12.7-4.9c-3.3-3.3-4.9-7.6-4.9-13V26h7.1
				v25.3c0,3.5,1,6.3,3,8.4s4.6,3.2,7.7,3.2c3.2,0,5.7-1.1,7.7-3.2c2-2.1,3-4.9,3-8.4V26H369.2z"/>
		</g>
	</g>
	<g>
		<g>
			<path class="st0" d="M383.7,31.8c4.3-4.3,9.6-6.4,15.9-6.4c2,0,4,0.2,5.8,0.7s3.3,1,4.5,1.7s2.3,1.3,3.2,2c0.9,0.7,1.6,1.2,2,1.6
				l0.6,0.7l-5.1,4.5c-0.1-0.1-0.3-0.3-0.5-0.5s-0.6-0.6-1.3-1.1c-0.7-0.5-1.5-1-2.3-1.4s-1.8-0.8-3.1-1.1c-1.3-0.3-2.6-0.5-4-0.5
				c-4.3,0-7.9,1.5-10.9,4.5c-2.9,3-4.4,6.7-4.4,11c0,4.4,1.5,8.1,4.4,11c2.9,3,6.6,4.5,10.9,4.5c1.4,0,2.8-0.2,4.2-0.5
				c1.3-0.4,2.5-0.8,3.3-1.3c0.9-0.5,1.6-1,2.3-1.6c0.7-0.5,1.2-1,1.5-1.3s0.5-0.5,0.5-0.6L416,62c-0.2,0.2-0.4,0.5-0.7,0.8
				c-0.3,0.3-0.9,0.9-2,1.7c-1,0.8-2.1,1.6-3.3,2.2c-1.2,0.7-2.7,1.2-4.7,1.8c-1.9,0.5-4,0.8-6.1,0.8c-6.3,0-11.5-2.1-15.8-6.3
				s-6.4-9.4-6.4-15.6C377.2,41.3,379.3,36.1,383.7,31.8z"/>
		</g>
	</g>
	<g>
		<g>
			<path class="st0" d="M439.4,32.1v36.6h-7V32.1h-13.2V26h33.6v6.1H439.4z"/>
		</g>
	</g>
	<g>
		<g>
			<path class="st0" d="M61,17.4c-8.9,0-16.8,3.9-22.3,10l-10.8-7.6c0.6-1.6,1-3.4,1-5.3c0-8-6.5-14.5-14.5-14.5C6.5,0,0,6.5,0,14.5
				S6.5,29,14.5,29c3.6,0,6.9-1.3,9.5-3.5L34.7,33c-2.3,4.3-3.7,9.2-3.7,14.4c0,8,3.1,15.2,8.2,20.6l-6.5,7.8
				c-1.2-0.5-2.4-0.7-3.8-0.7c-5.8,0-10.6,4.7-10.6,10.6c0,5.8,4.7,10.6,10.6,10.6c5.8,0,10.6-4.7,10.6-10.6c0-2-0.6-3.8-1.5-5.4
				l6.5-7.8c4.7,3.1,10.4,5,16.5,5c16.5,0,30-13.4,30-30C91,30.8,77.5,17.4,61,17.4z M14.5,21.9c-4.1,0-7.4-3.3-7.4-7.4
				S10.4,7,14.5,7s7.4,3.3,7.4,7.4c0,0.3,0,0.7-0.1,1c-0.3,2.5-1.9,4.5-4,5.6C16.9,21.6,15.7,21.9,14.5,21.9z M28.9,89.1
				c-2,0-3.5-1.6-3.5-3.5c0-1.2,0.6-2.2,1.4-2.8c0.6-0.4,1.3-0.7,2.1-0.7c2,0,3.5,1.6,3.5,3.5c0,0.6-0.1,1.1-0.4,1.6
				C31.5,88.3,30.3,89.1,28.9,89.1z M61,70.3c-4.4,0-8.5-1.2-11.9-3.4c-2-1.2-3.7-2.7-5.3-4.4c-3.6-4-5.7-9.3-5.7-15.2
				c0-3.7,0.9-7.2,2.4-10.3c1-2.1,2.4-4,4-5.6c4.2-4.3,10-7,16.5-7c12.6,0,22.9,10.3,22.9,22.9C83.9,60,73.6,70.3,61,70.3z"/>
		</g>
	</g>
</g>
<g>
	<path class="st1" d="M98.6,85.3c0-2.5,2.1-4.6,4.7-4.6c1.3,0,2.1,0.4,2.7,0.7c0.1,0.1,0.1,0.1,0.1,0.2l-0.3,0.7
		c0,0.1-0.1,0.1-0.2,0c-0.5-0.3-1.3-0.7-2.3-0.7c-1.9,0-3.6,1.7-3.6,3.6c0,2.2,1.6,3.7,3.6,3.7c1.1,0,1.8-0.3,2.4-0.7
		c0.1-0.1,0.1,0,0.2,0l0.3,0.7c0,0.1,0,0.1-0.1,0.2c-0.7,0.4-1.5,0.7-2.8,0.7C100.6,89.9,98.6,88.1,98.6,85.3z"/>
	<path class="st1" d="M116.6,80.9c0-0.1,0.1-0.1,0.2-0.1h0.9c0.1,0,0.2,0.1,0.1,0.2l-3.4,4.8v3.8c0,0.1-0.1,0.1-0.1,0.1h-0.8
		c-0.1,0-0.1-0.1-0.1-0.1v-3.8L110,81c-0.1-0.1-0.1-0.2,0.1-0.2h0.9c0.1,0,0.2,0,0.2,0.1l2.7,3.9L116.6,80.9z"/>
	<path class="st1" d="M125.8,89.8h-3.6c-0.1,0-0.1-0.1-0.1-0.1V81c0-0.1,0.1-0.1,0.1-0.1h2.9c0.7,0,1.4,0.1,2,0.5s1,1,1,1.8
		c0,1-0.5,1.7-1.2,2v0.1c1.3,0.2,1.9,1.1,1.9,2.3C128.7,89,127.3,89.8,125.8,89.8z M126.2,81.9c-0.3-0.2-0.7-0.3-1.1-0.3h-2v3.1h1.9
		c0.4,0,0.9,0,1.2-0.2c0.4-0.2,0.7-0.7,0.7-1.4C126.9,82.6,126.6,82.2,126.2,81.9z M126.9,85.9c-0.4-0.2-0.9-0.3-1.7-0.3h-2.1v3.3
		h2.5c0.4,0,0.8-0.1,1.1-0.2c0.6-0.2,1-0.7,1-1.5C127.7,86.7,127.4,86.2,126.9,85.9z"/>
	<path class="st1" d="M139.8,80.8c0.1,0,0.1,0.1,0.1,0.1v0.7c0,0.1-0.1,0.1-0.1,0.1h-5.2v3.1h4.6c0.1,0,0.1,0.1,0.1,0.1v0.7
		c0,0.1-0.1,0.1-0.1,0.1h-4.6v3.1h5.2c0.1,0,0.1,0.1,0.1,0.1v0.7c0,0.1-0.1,0.1-0.1,0.1h-6.2c-0.1,0-0.1-0.1-0.1-0.1v-8.7
		c0-0.1,0.1-0.1,0.1-0.1L139.8,80.8L139.8,80.8z"/>
	<path class="st1" d="M149,86.2l2.5,3.3c0.1,0.1,0.1,0.2-0.1,0.2h-0.9c-0.1,0-0.2,0-0.2-0.1l-2.5-3.4h-2.3v3.4
		c0,0.1-0.1,0.1-0.1,0.1h-0.8c-0.1,0-0.1-0.1-0.1-0.1v-8.7c0-0.1,0.1-0.1,0.1-0.1h3.6c0.9,0,1.6,0.1,2.2,0.5
		c0.6,0.4,1.1,1.2,1.1,2.2s-0.4,1.7-1,2.1C150,86,149.6,86.1,149,86.2z M145.6,81.7v3.7h2.4c0.7,0,1.2-0.1,1.6-0.3
		c0.5-0.3,0.8-0.8,0.8-1.5c0-0.8-0.3-1.3-0.8-1.5c-0.4-0.3-0.9-0.3-1.5-0.3L145.6,81.7L145.6,81.7z"/>
	<path class="st1" d="M155.7,89c-0.1,0-0.1-0.1-0.1-0.2l0.3-0.7c0-0.1,0.1-0.1,0.2,0c0.6,0.4,1.4,0.9,2.6,0.9c0.6,0,1.1-0.2,1.5-0.4
		c0.4-0.3,0.6-0.8,0.6-1.3c0-0.7-0.5-1.1-1.1-1.4c-0.8-0.3-1.7-0.5-2.6-0.9c-0.8-0.4-1.3-0.9-1.3-1.9c0-0.7,0.3-1.3,0.8-1.7
		c0.5-0.4,1.3-0.7,2.4-0.7c1.1,0,2,0.3,2.6,0.6c0.1,0.1,0.1,0.1,0.1,0.2l-0.3,0.7c0,0.1-0.1,0.1-0.2,0.1c-0.7-0.4-1.5-0.6-2.2-0.6
		s-1.3,0.2-1.6,0.5c-0.3,0.2-0.4,0.6-0.4,1c0,0.7,0.5,1,1.3,1.3c0.9,0.3,1.8,0.4,2.6,0.9c0.6,0.4,1.2,1,1.2,1.9s-0.4,1.5-0.9,2
		c-0.6,0.4-1.3,0.7-2.3,0.7C157.4,89.9,156.4,89.4,155.7,89z"/>
	<path class="st1" d="M172.9,80.8c0.1,0,0.1,0.1,0.1,0.1v0.7c0,0.1-0.1,0.1-0.1,0.1h-5.2v3.1h4.6c0.1,0,0.1,0.1,0.1,0.1v0.7
		c0,0.1-0.1,0.1-0.1,0.1h-4.6v3.1h5.2c0.1,0,0.1,0.1,0.1,0.1v0.7c0,0.1-0.1,0.1-0.1,0.1h-6.2c-0.1,0-0.1-0.1-0.1-0.1v-8.7
		c0-0.1,0.1-0.1,0.1-0.1L172.9,80.8L172.9,80.8z"/>
	<path class="st1" d="M177,85.3c0-2.5,2.1-4.6,4.7-4.6c1.3,0,2.1,0.4,2.7,0.7c0.1,0.1,0.1,0.1,0.1,0.2l-0.3,0.7c0,0.1-0.1,0.1-0.2,0
		c-0.5-0.3-1.3-0.7-2.3-0.7c-1.9,0-3.6,1.7-3.6,3.6c0,2.2,1.6,3.7,3.6,3.7c1.1,0,1.8-0.3,2.4-0.7c0.1-0.1,0.1,0,0.2,0l0.3,0.7
		c0,0.1,0,0.1-0.1,0.2c-0.7,0.4-1.5,0.7-2.8,0.7C179,89.9,177,88.1,177,85.3z"/>
	<path class="st1" d="M195.7,80.9c0-0.1,0.1-0.1,0.1-0.1h0.8c0.1,0,0.1,0.1,0.1,0.1v5.3c0,1-0.3,1.9-0.9,2.6
		c-0.6,0.7-1.6,1.1-2.9,1.1s-2.3-0.4-2.9-1.1c-0.6-0.6-0.9-1.5-0.9-2.6v-5.3c0-0.1,0.1-0.1,0.1-0.1h0.8c0.1,0,0.1,0.1,0.1,0.1v5.2
		c0,0.9,0.2,1.6,0.7,2c0.5,0.5,1.2,0.8,2.1,0.8c0.9,0,1.6-0.3,2.1-0.8c0.4-0.5,0.7-1.2,0.7-2L195.7,80.9L195.7,80.9z"/>
	<path class="st1" d="M206.3,86.2l2.5,3.3c0.1,0.1,0.1,0.2-0.1,0.2h-0.9c-0.1,0-0.2,0-0.2-0.1l-2.5-3.4h-2.3v3.4
		c0,0.1-0.1,0.1-0.1,0.1h-0.8c-0.1,0-0.1-0.1-0.1-0.1v-8.7c0-0.1,0.1-0.1,0.1-0.1h3.6c0.9,0,1.6,0.1,2.2,0.5
		c0.6,0.4,1.1,1.2,1.1,2.2s-0.4,1.7-1,2.1C207.3,86,206.8,86.1,206.3,86.2z M202.9,81.7v3.7h2.4c0.7,0,1.2-0.1,1.6-0.3
		c0.5-0.3,0.8-0.8,0.8-1.5c0-0.8-0.3-1.3-0.8-1.5c-0.4-0.3-0.9-0.3-1.5-0.3L202.9,81.7L202.9,81.7z"/>
	<path class="st1" d="M214.3,80.8c0.1,0,0.1,0.1,0.1,0.1v8.7c0,0.1-0.1,0.1-0.1,0.1h-0.8c-0.1,0-0.1-0.1-0.1-0.1v-8.7
		c0-0.1,0.1-0.1,0.1-0.1H214.3z"/>
	<path class="st1" d="M225.8,80.8c0.1,0,0.1,0.1,0.1,0.1v0.7c0,0.1-0.1,0.1-0.1,0.1h-3v7.9c0,0.1-0.1,0.1-0.1,0.1h-0.8
		c-0.1,0-0.1-0.1-0.1-0.1v-7.9h-3c-0.1,0-0.1-0.1-0.1-0.1v-0.7c0-0.1,0.1-0.1,0.1-0.1H225.8z"/>
	<path class="st1" d="M236.5,80.9c0-0.1,0.1-0.1,0.2-0.1h0.9c0.1,0,0.2,0.1,0.1,0.2l-3.4,4.8v3.8c0,0.1-0.1,0.1-0.1,0.1h-0.8
		c-0.1,0-0.1-0.1-0.1-0.1v-3.8l-3.4-4.8c-0.1-0.1-0.1-0.2,0.1-0.2h0.9c0.1,0,0.2,0,0.2,0.1l2.7,3.9L236.5,80.9z"/>
	<path class="st1" d="M252.1,80.8c0.8,0,1.4,0.1,2.1,0.6c0.7,0.5,1.1,1.3,1.1,2.3s-0.4,1.9-1.1,2.4c-0.6,0.5-1.4,0.6-2.1,0.6h-2.5v3
		c0,0.1-0.1,0.1-0.1,0.1h-0.8c-0.1,0-0.1-0.1-0.1-0.1V81c0-0.1,0.1-0.1,0.1-0.1h3.4V80.8z M253.4,82.1c-0.4-0.3-0.9-0.4-1.4-0.4
		h-2.4v4.1h2.3c0.6,0,1.1-0.1,1.5-0.4c0.5-0.3,0.8-0.9,0.8-1.7C254.1,83,253.8,82.5,253.4,82.1z"/>
	<path class="st1" d="M264.3,86.2l2.5,3.3c0.1,0.1,0.1,0.2-0.1,0.2h-0.9c-0.1,0-0.2,0-0.2-0.1l-2.5-3.4h-2.3v3.4
		c0,0.1-0.1,0.1-0.1,0.1h-0.8c-0.1,0-0.1-0.1-0.1-0.1v-8.7c0-0.1,0.1-0.1,0.1-0.1h3.6c0.9,0,1.6,0.1,2.2,0.5s1.1,1.2,1.1,2.2
		s-0.4,1.7-1,2.1C265.3,86,264.8,86.1,264.3,86.2z M260.9,81.7v3.7h2.4c0.7,0,1.2-0.1,1.6-0.3c0.5-0.3,0.8-0.8,0.8-1.5
		c0-0.8-0.3-1.3-0.8-1.5c-0.4-0.3-0.9-0.3-1.5-0.3L260.9,81.7L260.9,81.7z"/>
	<path class="st1" d="M275.7,89.9c-2.6,0-4.7-2-4.7-4.6s2.1-4.6,4.7-4.6s4.7,2,4.7,4.6S278.3,89.9,275.7,89.9z M275.7,81.7
		c-2,0-3.6,1.6-3.6,3.6s1.6,3.6,3.6,3.6s3.6-1.6,3.6-3.6S277.7,81.7,275.7,81.7z"/>
	<path class="st1" d="M292.2,81.4c0.1,0.1,0.1,0.1,0.1,0.2l-0.3,0.7c0,0.1-0.1,0.1-0.2,0c-0.5-0.3-1.3-0.7-2.3-0.7
		c-2,0-3.6,1.7-3.6,3.6c0,2.3,1.6,3.7,3.6,3.7c1,0,1.9-0.3,2.5-0.8v-1.9h-2.7c-0.1,0-0.1-0.1-0.1-0.1v-0.7c0-0.1,0.1-0.1,0.1-0.1
		h3.6c0.1,0,0.1,0.1,0.1,0.1v4.2c0,0.1-0.1,0.1-0.1,0.1h-0.7c-0.1,0-0.1-0.1-0.1-0.1v-0.5c-0.6,0.4-1.5,0.8-2.6,0.8
		c-2.5,0-4.6-1.6-4.6-4.6c0-2.5,2.1-4.6,4.7-4.6C290.8,80.7,291.6,81,292.2,81.4z"/>
	<path class="st1" d="M302.5,86.2l2.5,3.3c0.1,0.1,0.1,0.2-0.1,0.2H304c-0.1,0-0.2,0-0.2-0.1l-2.5-3.4H299v3.4
		c0,0.1-0.1,0.1-0.1,0.1h-0.8c-0.1,0-0.1-0.1-0.1-0.1v-8.7c0-0.1,0.1-0.1,0.1-0.1h3.6c0.9,0,1.6,0.1,2.2,0.5s1.1,1.2,1.1,2.2
		s-0.4,1.7-1,2.1C303.5,86,303,86.1,302.5,86.2z M299.1,81.7v3.7h2.4c0.7,0,1.2-0.1,1.6-0.3c0.5-0.3,0.8-0.8,0.8-1.5
		c0-0.8-0.3-1.3-0.8-1.5c-0.4-0.3-0.9-0.3-1.5-0.3L299.1,81.7L299.1,81.7z"/>
	<path class="st1" d="M309.8,89.6c0,0.1-0.1,0.1-0.2,0.1h-0.8c-0.1,0-0.1,0-0.1-0.1v-0.1l3.4-8.7c0-0.1,0.1-0.1,0.2-0.1h0.8
		c0.1,0,0.2,0,0.2,0.1l3.4,8.7v0.1c0,0.1,0,0.1-0.1,0.1h-0.8c-0.1,0-0.2,0-0.2-0.1l-0.8-2.1h-4.3L309.8,89.6z M312.7,82l-1.9,4.7
		h3.7L312.7,82z"/>
	<path class="st1" d="M330,89.6c0,0.1-0.1,0.1-0.1,0.1h-0.8c-0.1,0-0.1-0.1-0.1-0.1v-7l-3,4.9c-0.1,0.1-0.1,0.1-0.2,0.1h-0.6
		c-0.1,0-0.1,0-0.2-0.1l-3-4.9v7c0,0.1-0.1,0.1-0.1,0.1h-0.8c-0.1,0-0.1-0.1-0.1-0.1v-8.7c0-0.1,0.1-0.1,0.1-0.1h0.8
		c0.1,0,0.2,0,0.2,0.1l3.3,5.5l3.3-5.5c0.1-0.1,0.1-0.1,0.2-0.1h0.8c0.1,0,0.1,0.1,0.1,0.1v8.7H330z"/>
	<path class="st1" d="M334.7,89c-0.1,0-0.1-0.1-0.1-0.2l0.3-0.7c0-0.1,0.1-0.1,0.2,0c0.6,0.4,1.4,0.9,2.6,0.9c0.6,0,1.1-0.2,1.5-0.4
		c0.4-0.3,0.6-0.8,0.6-1.3c0-0.7-0.5-1.1-1.1-1.4c-0.8-0.3-1.7-0.5-2.6-0.9c-0.8-0.4-1.3-0.9-1.3-1.9c0-0.7,0.3-1.3,0.8-1.7
		c0.5-0.4,1.3-0.7,2.4-0.7s2,0.3,2.6,0.6c0.1,0.1,0.1,0.1,0.1,0.2l-0.3,0.7c0,0.1-0.1,0.1-0.2,0.1c-0.7-0.4-1.5-0.6-2.2-0.6
		s-1.3,0.2-1.6,0.5c-0.3,0.2-0.4,0.6-0.4,1c0,0.7,0.5,1,1.3,1.3c0.9,0.3,1.8,0.4,2.6,0.9c0.6,0.4,1.2,1,1.2,1.9s-0.4,1.5-0.9,2
		c-0.6,0.4-1.3,0.7-2.3,0.7C336.3,89.9,335.4,89.4,334.7,89z"/>
	<path class="st1" d="M358.4,80.8c0.1,0,0.1,0.1,0.1,0.1v0.7c0,0.1-0.1,0.1-0.1,0.1h-3v7.9c0,0.1-0.1,0.1-0.1,0.1h-0.8
		c-0.1,0-0.1-0.1-0.1-0.1v-7.9h-3c-0.1,0-0.1-0.1-0.1-0.1v-0.7c0-0.1,0.1-0.1,0.1-0.1H358.4z"/>
	<path class="st1" d="M370,80.8c0.1,0,0.1,0.1,0.1,0.1v8.7c0,0.1-0.1,0.1-0.1,0.1h-0.8c-0.1,0-0.1-0.1-0.1-0.1v-3.9h-5.4v3.9
		c0,0.1-0.1,0.1-0.1,0.1h-0.8c-0.1,0-0.1-0.1-0.1-0.1v-8.7c0-0.1,0.1-0.1,0.1-0.1h0.8c0.1,0,0.1,0.1,0.1,0.1v3.9h5.4v-3.9
		c0-0.1,0.1-0.1,0.1-0.1H370z"/>
	<path class="st1" d="M375.5,89.6c0,0.1-0.1,0.1-0.2,0.1h-0.8c-0.1,0-0.1,0-0.1-0.1v-0.1l3.4-8.7c0-0.1,0.1-0.1,0.2-0.1h0.8
		c0.1,0,0.2,0,0.2,0.1l3.4,8.7v0.1c0,0.1,0,0.1-0.1,0.1h-0.8c-0.1,0-0.2,0-0.2-0.1l-0.8-2.1h-4.3L375.5,89.6z M378.4,82l-1.9,4.7
		h3.7L378.4,82z"/>
	<path class="st1" d="M391.9,80.8c0.1,0,0.1,0.1,0.1,0.1v0.7c0,0.1-0.1,0.1-0.1,0.1h-3v7.9c0,0.1-0.1,0.1-0.1,0.1H388
		c-0.1,0-0.1-0.1-0.1-0.1v-7.9h-3c-0.1,0-0.1-0.1-0.1-0.1v-0.7c0-0.1,0.1-0.1,0.1-0.1H391.9z"/>
	<path class="st1" d="M414.1,80.9c0-0.1,0.1-0.1,0.2-0.1h0.8c0.1,0,0.1,0.1,0.1,0.2l-2.9,8.7c0,0.1-0.1,0.1-0.2,0.1h-0.9
		c-0.1,0-0.2,0-0.2-0.1l-2.5-7l0,0l-2.4,7c0,0.1-0.1,0.1-0.2,0.1H405c-0.1,0-0.2,0-0.2-0.1l-3-8.7c0-0.1,0-0.2,0.1-0.2h0.8
		c0.1,0,0.2,0.1,0.2,0.1l2.5,7.5l0,0l2.6-7.5c0-0.1,0.1-0.1,0.2-0.1h0.6c0.1,0,0.2,0.1,0.2,0.1l2.6,7.5l0,0L414.1,80.9z"/>
	<path class="st1" d="M423.5,89.9c-2.6,0-4.7-2-4.7-4.6s2.1-4.6,4.7-4.6s4.7,2,4.7,4.6S426.1,89.9,423.5,89.9z M423.5,81.7
		c-2,0-3.6,1.6-3.6,3.6s1.6,3.6,3.6,3.6s3.6-1.6,3.6-3.6S425.5,81.7,423.5,81.7z"/>
	<path class="st1" d="M437.5,86.2l2.5,3.3c0.1,0.1,0.1,0.2-0.1,0.2H439c-0.1,0-0.2,0-0.2-0.1l-2.5-3.4H434v3.4
		c0,0.1-0.1,0.1-0.1,0.1h-0.8c-0.1,0-0.1-0.1-0.1-0.1v-8.7c0-0.1,0.1-0.1,0.1-0.1h3.6c0.9,0,1.6,0.1,2.2,0.5s1.1,1.2,1.1,2.2
		s-0.4,1.7-1,2.1C438.4,86,438,86.1,437.5,86.2z M434,81.7v3.7h2.4c0.7,0,1.2-0.1,1.6-0.3c0.5-0.3,0.8-0.8,0.8-1.5
		c0-0.8-0.3-1.3-0.8-1.5c-0.4-0.3-0.9-0.3-1.5-0.3L434,81.7L434,81.7z"/>
	<path class="st1" d="M446.6,85.5l-1,1v3.2c0,0.1-0.1,0.1-0.1,0.1h-0.8c-0.1,0-0.1-0.1-0.1-0.1V81c0-0.1,0.1-0.1,0.1-0.1h0.8
		c0.1,0,0.1,0.1,0.1,0.1v4.2l4.1-4.2c0.1-0.1,0.1-0.1,0.3-0.1h1c0.1,0,0.2,0.1,0.1,0.2l-3.7,3.7l4,4.8c0.1,0.1,0.1,0.2-0.1,0.2h-0.9
		c-0.1,0-0.2,0-0.2-0.1L446.6,85.5z"/>
</g>
</svg>
